<svg xmlns="http://www.w3.org/2000/svg" viewBox="0 0 920 941"><g stroke-width="2" fill="none" stroke="#706d6f" stroke-opacity=".992"><path vector-effect="non-scaling-stroke" d="M543.02 84.67q-.27.18-.6.19a.03.03 0 0 0 0 .06q6.56 1.26 13.38 2.57 6.95 1.34 13.3 2.92 13.44 3.33 22.4 5.85.74.2 1.21.05M594.02 96.72q-.08.11-.24.15-.13.04 0 .07 2.03.59 3.98 1.41.49.21.96-.07M599.35 98.49l6.63 2.04M623.55 106.72q2.22 1.62 4.39 1.92M628.42 108.87l36.27 16.22M239.31 554.6q7.21 8.02 10.92 10.56 1.54 1.04 2.51 1.89 1.71 1.47 2.43 1.95 2.03 1.33 4.02 2.83M273.98 583.77l9.77 8.67M264.33 459.71l-.24-13.43M269.93 540.32l-.25-5.94q0-.01-.01-.01-1.36-.11.03.01.06.01.05.07-.52 7.13-.14 15.01.11 2.32 2.14 2.86.5.14.88.48 7.56 6.64 16.09 11.97"/><path vector-effect="non-scaling-stroke" d="M289.63 564.01q-1.57-2.24-3.66-2.64M739.06 559.4q-7.48 7.01-15.62 12.28M705.21 586.26q.93 1.34 1.98.68 1.24-.79 1.93-1.95M725.47 571.54l17.27-13.58M762.72 315.03l-.06 30.68M761.06 403.47q-.2-.36-.18-.84v-.01.01q-.49 7.4-.21 14.83M760 434.05l-.57 19.16M784.02 402.54l-.32 16.18M777.01 398.71l.31-64.42M321.91 529.31q-.59.06-.58.84 0 .54.52.69.52.15.96-.11M435.1 567.4q3.12 5.47 7.38 8.84M445.02 581.1q-.05 16.16-2.62 31.82c-.3 1.87-.09 3.7-.35 5.53q-.24 1.78.25 3.76 1.54 6.19 4.21 12.04"/><path vector-effect="non-scaling-stroke" d="M448.37 633.66q.36-1.62.02-4.66-.82-7.46-1.83-15.35-1.1-8.57-.74-15.37.61-11.37 1.73-20.14.05-.43.25-.79c.31-.58.58-1.11.59-1.78q.01-2.36.6-4.79.43-1.76.63-3.4t.6-3.4q.02-.08.61-3.5.46-2.68 2.1-5.7M452.56 600q.6 2.96 3.29 4.78.18.12.34.12.26 0 .35-.22M478.37 604.75l1.37 5.31q.13.5.61.66 2.69.89 3.81-.75M511.56 602.25q.64 3.31 2.7 6.05a.71.66-7.6 0 0 .35.25l6.66 2.07q1.79.55 2.27-1.27l1.58-6.01M533.92 611.24q.86 1.46 1.83.76 1.38-.98 2.37-.7M539.98 611.03q.25-3.29 1.14-8.03.62-3.31.29-7.27M543.3 591.77q-.35.12-.7.12-.25-.01-.26.24-.01.16.03.32.07.31.32.49.78.54.69 1.54a1.33 1.24 36.7 0 0 .12.66l3.19 6.91a1.75 1.75 0 0 0 .85.85l5.5 2.49M556.2 600.48q.3.8.16 1.63 0 .02-.01.02h.04q.06-.01.05-.07-.24-2.59.04-5.22.26-2.35-.36-4.54-1.42-5.03-3.38-9-.3-.61.37-.67.17-.01.33.04.46.16.72.55 1.16 1.76 2.53 3.24M558.59 590.23q1.32 5.54 5.1 10.47M568.85 585l.48-8.71M569.78 574.18q.1.24.09.44v.01q.36-2.47.42-4.44.06-2.22.2-4.63.15-2.49.09-4.64-.09-3.42-.14-6.96M574.81 583.47q.1 5.5 1.62 10.84c.74 2.57 1.21 5.28 2.12 7.83.78 2.16.88 4.41 1.33 6.65a.04.04 0 0 0 .07 0l.22-1.3M587.25 598.52q-.11-2.89-2.11-5.73-.33-.47-.37-1.03l-.62-9.54a.07.06-48.1 0 0-.13.01l-.01 11.15M584.42 572q1.16 1.26 2.31-.82M705.77 514.1q2.91-1.28 5.05-3.88M715.03 506.93c2.63-1.35 5.44-3.66 5.56-6.92q.24-6.14-.43-12.9a.26.26 0 0 0-.31-.23q-.85.16-.09.16M697.37 392.74q.13-2.26-1.18-2.85M325.92 391.71l-.18-2.84q-.05-.81-.3-.04-.19.6-.21 1.39M427.5 889.76q9.73 3.88 22.75 7.35 4.01 1.06 5.99 1.24M382.4994 546.5456a2.43.33 32.5 0 0-1.8721-1.5839 2.43.33 32.5 0 0-2.2267-1.0273 2.43.33 32.5 0 0 1.8721 1.5839 2.43.33 32.5 0 0 2.2267 1.0273M408.75 566.5l-.87-.52q-.63-.38-.51.34l.97 5.99M460.99 871.77q.57.56 1.26.62.52.05.37-.45-.13-.48-.81-.67M562.43 871.96q-.38.13-.74.32-.1.05-.17.14-.11.13.02.31t.35.13l.84-.22M658.26 829.4q3.84-1.9 6.89-5.16M438.18 613.17q.25 2.69 1.45 4.99.07.15.18.21.14.09.27.1.34.03.25-.3-.53-1.88-.47-2.53.43-4.41 1.1-6.96M441.56 604.66l1.39-6.34M443 596.28q.32-1.96.15-2.54-1.36-4.53-1.59-8.56-.25-4.19-.76-6.84-.01-.07-.07-.06l-.25.05a.25.25 0 0 0-.21.29q1.07 8.19-1.66 15.96M699.5236 583.4738a.26.26 0 0 0-.0808-.3587l-14.4371-9.1267a.26.26 0 0 0-.3587.0808l-.0106.017a.26.26 0 0 0 .0808.3587l14.4371 9.1267a.26.26 0 0 0 .3587-.0808l.0106-.017M337.5464 574.6446a4.45.19-27.8 0 0-4.025 1.9073 4.45.19-27.8 0 0-3.8478 2.2435 4.45.19-27.8 0 0 4.025-1.9073 4.45.19-27.8 0 0 3.8478-2.2435M601.32 674.65q-.8-.84-1.78-.39M597.95 673.17q-1.37-.42-1.05 2.36M580.77 713.95q.06.65.73.76 2.43.43 5.33-.05.45-.07.11-.39l-.26-.23M587.61 713.51q1.64-1.92.89-3.8M291.77 610.21q-.6-.01.14.75 5.23 5.33 14.53 14.84 2.87 2.92 6.21 5.12a1.04 1.04 0 0 0 1.12 0q.86-.54.16-.75M280.77 597.91l-13.75-11.83q-.18-.15-.1.06.05.15.18.26 8.71 8.23 17.37 16.74M731.25 613.9q9.07-9.15 17.55-18.1 2.6-2.74 5.16-5.48.13-.13 0-.26h-.01q-.12-.13-.25-.01-10.35 9.62-21.07 18.84-.94.8-2.79 2.99M576.39 609.31q.17-1.89-.48-3.75-.88-2.56-1.05-3.52-.86-4.86-2.37-9.52a.08.08 0 0 0-.15.04q.63 4.65 1.21 9.62.28 2.38.08 5.66-.17 2.83-.05 5.69M459.73 639.42q.05.84.48 1.24.48.45.43-.21l-.48-6.2M495.76 618.31q-.21-.57-.17-.85.16-1.21.08.01-.57 8.76-.15 17.87.01.04.04.04h.03q.07 0 .06-.06-.2-1.34.21-2.37M475.27 648.45q.22.42.48.62.5.36.54-.25.65-9.62-.2-19.05M483.05 613.49q-1.51-.39-2.81.15-.49.2-.54.74-.43 5.29-.34 10.99.01.67.3 1.27.25.5.14 1.06-.2.98-.06 2.11.43 3.67 1.11 7.3 0 .02.01.02h.01q.01 0 .01-.02-.06-.39.17-.58M516.05 754.16q-.69-.85-.68.6a1.11 1.11 0 0 1-.36.82q-.68.64-.93 1.75M473.59 734.49q.37 1.83 1.77 3.01.38.31.85.36 1.08.1.83-.65M632.28 288.94q-.29 3.2.83 3.64M453.67 234.27q.37 2.83.64 5.59.06.64.34 1.46.25.72.37 1.47.28 1.73 1.08 3.64M508.44 384.25q.54 1.09 1.57 1.55.86.38 1.99-.13 1.27-.58 2.04-1.16 13.39-10.08 25.97-21.23M548.2 356.3q2.06-.63 2.83-2.31M309.47 345.09q4.39 2.14 9.12 1.88M438.04 390.04l8.62 5.24a1.04 1.03 13.1 0 1 .49.78q.07.65-.39 1.25M418.48 349.7l8.03 4.37"/></g><path fill="#292829" d="M543.02 84.67q-.27.18-.6.19a.03.03 0 0 0 0 .06q6.56 1.26 13.38 2.57 6.95 1.34 13.3 2.92 13.44 3.33 22.4 5.85.74.2 1.21.05l1.31.41q-.08.11-.24.15-.13.04 0 .07 2.03.59 3.98 1.41.49.21.96-.07.58-.08.63.21l6.63 2.04 17.57 6.19q2.22 1.62 4.39 1.92.64-.26.48.23l36.27 16.22c30.76 15.04 58.55 33.43 85.62 54.46q9.84 7.64 28.15 23.81 16.66 14.71 36.52 36.73 23.55 26.13 43.51 57.1 33.45 51.94 48.54 112.11 2.09 8.3 3.6 16.37c1.35 7.21 2.91 14.46 4 21.81 4.9 32.82 5.65 65.03.8 98.04q-6.04 41.07-18.56 78.89c-15.65 47.28-39.94 91.77-70.54 131.25q-16.59 21.41-37.64 43.49-6.93 7.27-14.02 13.92c-6.62 6.2-12.99 12.42-19.69 18.22-28.37 24.57-58.62 44.77-91.72 61.3-4.48 2.24-7.74 5.78-10.11 10.17q-3.05 5.64-6.99 10.78-1.84 2.41-5.32 3.75-22.13 8.56-45.76 13.75-28.05 6.16-53.8 7.8-17.86 1.14-41.72.51-10.3-.27-20.87-1.73c-26.91-3.71-52.18-9.45-76.7-18.82-4.1-1.56-8.64-3.63-11.08-7.62q-3.77-6.19-7.87-11.65-2.55-3.39-6.62-5.18-9.86-4.35-20-9.81-38.31-20.66-71.14-47.74-39.04-32.2-69.78-68.97-17.98-21.52-35.17-47.35-25.76-38.74-43.13-82.68-3.64-9.22-6.88-18.97-6.72-20.2-10.76-36.92-4.27-17.65-6.17-32.44-1.07-8.37-2.01-17.75-4.1-40.97 2.14-82.75 1.59-10.66 3.71-21.15 2.25-11.09 5.83-24.91c5.32-20.56 12.17-39.79 20.92-60.02 8.55-19.78 19.65-38.33 31.46-56.65q12.29-19.06 26.86-36.18 17.81-20.95 37.17-38.91 38.04-35.3 82.47-63.2 34.26-21.52 71.42-36.6 9.4-3.81 18.63-7.26 37.54-14.02 76.69-20.65 9.41-1.59 18.95-2.14c7.85-.44 16.18.75 24.37 1.6q3.23.33 11.02 1.77ZM239.31 554.6q7.21 8.02 10.92 10.56 1.54 1.04 2.51 1.89 1.71 1.47 2.43 1.95 2.03 1.33 4.02 2.83 7.88 5.41 14.79 11.94l9.77 8.67q16.16 13.66 31.2 28.61 1.2 1.2 2.28 1.89a1.09 1.09 0 0 0 1.38-.17c2.42-2.54 5.2-4.29 8.02-6.33q12.93-9.36 26.65-18.85 1.18-.81.42-2.02-3.85-6.11-8.61-11.42-2.12-2.37-4.13-5.32a1.75 1.74 51.3 0 0-2.63-.3c-1.49 1.39-3.41 2.07-4.94 3.37q-6.38 5.42-13.29 12.04-.98.94-2.04 1.76a1.21 1.21 0 0 1-.94.23q-1.1-.21-2.12-1.05-11.86-9.83-23.85-20.67c-4.84-4.39-9.74-8.33-14.79-12.63-2.29-1.96-4.87-3.63-7.39-5.32q-3.02-2.03-3.04-5.26-.05-7.22.07-28 .09-15.79-1.67-63.29l-.24-13.43q-1.92-60.87-2.78-121.78c-.04-3.21-.45-10.06 1.62-12.48q9.86-11.54 12.02-16.07 4.67-9.8 9.73-20.38c1.83-3.81 4.24-7.59 6.42-11.41q1.47-2.59 4.3-3.35a.38.38 0 0 1 .45.49q-6.43 17.96-13.51 35.94c-2.67 6.78-6.56 12.91-9.97 19.25q-1.8 3.35-1.82 7.26c-.31 72.18-.96 144.39-.62 216.57l-.25-5.94q0-.01-.01-.01-1.36-.11.03.01.06.01.05.07-.52 7.13-.14 15.01.11 2.32 2.14 2.86.5.14.88.48 7.56 6.64 16.09 11.97 11.19 9.29 22.39 18.63 1.67 1.39 3.69 2.2 1.71.69 2.42-1.02.21-.5-.17-.87c-3.83-3.71-8.01-6.01-12.11-8.89q-1.22-.86-5.51-3.72-2.77-1.86-5.26-4.09-2.13-1.9-4.54-3-1.57-2.24-3.66-2.64-.3-1.31.28-1.37 1.7-.18 3.19.6 6.5 3.38 13.19 6.39.65.29.32-.34c-1.02-1.97-1.77-3.91-3.01-5.79q-4.25-6.44-8.76-13.09c-3.67-5.42-3.08-13.33-1.7-19.43q1.88-8.3 3.71-16.55 1.39-6.24 1.36-11.87-.04-7.61-.88-13.08-.94-6.06-2.05-12.24c-1.08-6.02.21-13.22.97-19.56q.53-4.45 1.51-9.05 5.15-24.42 10.74-44.1c2.61-9.17 7.14-25.65 17.96-28.45q3.08-.8 9.88.1 5.52.73 10.4 1.86 13.78 3.21 30.33 8.64 31.25 10.26 59.16 22.67 20.65 9.18 41.21 18.83c2.48 1.16 5.33 2.14 7.95.76 2.1-1.1 5.18-3.15 7.56-3.11q2.79.04 5.25.78 8.05 2.43 15.64 5.31.65.25 1.21.28.86.05 1.23-.13 7.55-3.55 16.3-6.02c5.14-1.45 8.13 3.58 12.81 2.09q7.02-2.22 12.86-5.1 15.21-7.51 27.51-13.19 15.97-7.38 44.24-17.79 6.68-2.46 23.79-7.62 20.92-6.33 38.26-8.64 5.51-.73 10.41 1.03c4.26 1.52 8.28 7.5 10.03 11.23q6.18 13.17 10.48 29.51 6.66 25.31 9.81 43.51 1.86 10.81.19 20.77-.9 5.33-1.63 10.63c-1.26 9.03.62 17.56 3.9 26.61 1.49 4.09 2.58 8.34 3.52 12.55q.9 3.98.94 8.17c.04 3.29-1.27 6.38-3.11 9.11q-6.08 9.06-12.24 17.91-1.2 1.73-1.88 3.39-1.14 2.78 1.38 1.15 8.55-5.52 18.87-9.33-7.48 7.01-15.62 12.28-4.1 2.68-8.53 4.97-2.78 1.43-9.76 7.75-.83.76.06 1.86.93 1.34 1.98.68 1.24-.79 1.93-1.95l16.35-13.45 17.27-13.58q3.65-2.51 7.12-5.4c1.52-1.26 1.96-2.4 1.98-4.3.09-12 .79-24.41.84-35.93q.41-94.39.29-189.07c0-2.18-.48-4.81-1.44-6.6q-7.06-13.19-9.71-20.92-5.57-16.23-10.95-32.53-.36-1.1-.1-1.23a1.68 1.52 61 0 1 2.06.7q2.83 4.65 4.93 9.19 5.45 11.78 11.71 24 4.16 8.09 12.39 17.05.45.49.86 2.11l-.06 30.68-1.6 57.76q-.2-.36-.18-.84v-.01.01q-.49 7.4-.21 14.83l-.67 16.59-.57 19.16q-.28 17.04-1.24 34.04c-.29 5.09-.1 11.24-.44 16.67-.69 10.92-1.29 20.8-1.65 32.61q-.16 5.24-.76 12.61c-.24 3.05-.35 5.59-2.42 7.37q-21.83 18.74-45.78 38.94a2.53 2.53 0 0 1-3.16.07c-7-5.37-13.45-12.97-22.27-15.59a.77.76 23.1 0 0-.88.35c-3.43 6.08-7.65 11-11.8 16.22a1.83 1.82-53.4 0 0 .39 2.64q9.3 6.47 17.96 13.07 3.38 2.58 6.5 4.73 4.87 3.34 9.03 7.94a1.47 1.46 53.1 0 0 1.85.27q2.62-1.58 4.34-3.07 14.68-12.67 33.5-29.49 1.06-.94 2.09-1.9 18.18-16.75 36.99-32.5 2.72-2.28 5.76-4.44c2.08-1.49 3.87-3.34 4.49-5.76q1.45-5.58 2.54-11.24 2.35-12.29 5.06-27.64 5.58-31.6 11.5-64.51 1.84-10.25 3.38-19.73 4.93-30.2 9.79-61.13 1.28-8.15 2.34-16.48.57-4.52-1.69-7.82-9.65-14.12-28.1-34.8-4.27-4.78-8.87-8.93a.41.41 0 0 0-.69.3q-.15 29.01-1.48 63.1-.85 21.72-1.69 43.43l-.32 16.18q-.8 21.76-1.43 43.54-.57 19.97-1.7 39.5c-.48 8.44-.4 17.01-1.1 25.64q-.38 4.58-.51 8.91c-.21 6.94-1.05 13.87-1.67 20.75q-.08.93-.75 1.57l-.61.58q-.89.86-.9-.38-.1-9.44.41-17.77c.67-10.88.44-22.1.89-33.38q.34-8.62.34-15.64 0-46.67.34-93.33l.31-64.42q.38-21.86.5-43.72c.01-2.96 1.15-4.36-1.13-7.02-17.35-20.14-38.06-39.41-58.27-56.15-2.14-1.78-3.9-3.45-6.49-4.65a2.34 2.33-61.1 0 0-2.93.85q-2.29 3.55-3.22 7.92c-2.1 9.82-3.39 20.05-3.89 30.38q-1.25 25.92-.56 50.38c.05 1.95.5 3.79.42 5.78q-.04.82-.59.22-11.41-12.34-24.47-21.26-.41-.28-.54-.76-.32-1.2-.13-2.45.97-6.34 3.43-17.17 6.56-28.85 18.45-63 .42-1.2.35-2.38-.02-.47-.4-.76-12.11-9.35-28.56-19.8-36.29-23.07-71.63-36.71c-18.75-7.24-38.75-14.33-57.1-18.88q-10.56-2.62-19.37-3.92-8.78-1.3-18.06.16-6.67 1.05-12.4 2.38-38.09 8.87-74.43 24.31c-33.65 14.31-65.68 32.14-94.71 54.74q-1.23.96-.66 2.45 15.74 41.35 22.9 79 .6 3.16-1.81 4.66-12.71 7.89-23.47 19.43-.89.96-.67-.33.89-5.3.95-9.99.2-16.57-.21-40.02c-.11-6.69-1-13.34-1.45-20.08-.58-8.54-2.52-15.97-5.52-23.68a1.02 1.01-25.4 0 0-1.45-.51q-1.77 1.01-3.32 2.29-31.47 25.97-58.13 55.45c-2.59 2.86-1.32 5.18-1.23 8.55q.41 16.12.45 32.45.21 97.74.34 194.38c0 6.17-.53 12.75-.24 18.94q.49 10.76-.16 21.59a.54.54 0 0 1-.17.37q-.33.29-.62.17-.35-.14-.35-.52c.03-2.6-.65-5.11-.72-7.68q-.37-15.23-1.69-28.96-.37-3.84-.37-7.31c0-5.91-.58-11.88-.76-17.77q-1.35-43.1-2.67-85.41-1.91-61.07-2.74-114.44a.66.65 80.6 0 0-.86-.62q-.9.29-1.56.92-6.45 6.18-11.99 12.68-13.37 15.69-24.53 30.88-2.12 2.89-1.59 7.31.8 6.76 1.89 13 6.47 37.29 11.73 74.77 1.95 13.91 4.29 27.75 5.4 32 10.8 64.01 1.94 11.52 3.55 15.19 2.18 4.98 9.76 12.9Zm85.92-164.38c-.49 1.33-1.05 2.61-1.17 4.03q-1.34 14.78 2.66 29.66 3.48 12.96-4.98 22.96-1.26 1.5-1.6 3.58a2.41 2.41 0 0 0 .26 1.53c3.11 5.68-.81 14.37-4.78 18.18-5.85 5.61-13.71 11.56-14.43 20.5q-.4 4.92.06 9.38c.16 1.46.82 2.58 1.97 3.5q6.34 5.13 13.05 9.92 8.03 5.74 5.64 15.85-.59.06-.58.84 0 .54.52.69.52.15.96-.11c4.76.05 10.03-.05 14.7.97 4.17.92 6.82.43 10.43-1.78q7.98-4.87 15.41-9.38c8.93-5.42 20.98-8.29 32.1-7.16 14.83 1.5 26.95 5.09 36.61 16.96q8.08 9.91 5.2 22.79-1.08 4.8-2.11 9.03-.25 1.06-.21 2.3.06 1.43.16 2.94 3.12 5.47 7.38 8.84 2.25 2.08 2.54 4.86-.05 16.16-2.62 31.82c-.3 1.87-.09 3.7-.35 5.53q-.24 1.78.25 3.76 1.54 6.19 4.21 12.04l2.11 4.74a.54.54 0 0 0 1.04-.26q-.23-2.8-1.29-5.07.36-1.62.02-4.66-.82-7.46-1.83-15.35-1.1-8.57-.74-15.37.61-11.37 1.73-20.14.05-.43.25-.79c.31-.58.58-1.11.59-1.78q.01-2.36.6-4.79.43-1.76.63-3.4t.6-3.4q.02-.08.61-3.5.46-2.68 2.1-5.7 1 5.85.72 10.09-.36 5.49-1.37 13.12-1.08 8.2.28 22.01.6 2.96 3.29 4.78.18.12.34.12.26 0 .35-.22.14.1.32.16.34.1.45-.24 1.5-4.94 1.38-7.97-.17-4.06 1.67-7.12a.48.48 0 0 1 .88.13q.71 2.8.97 5.83.51 5.77 2.17 12.82a1.58 1.56-7.5 0 0 1.6 1.21l6.03-.24a1.74 1.73-1.8 0 0 1.67-1.77q-.24-11.26 3.29-21.42.23-.67.28.03l1.12 18.65 1.37 5.31q.13.5.61.66 2.69.89 3.81-.75l4.17-.74a1.99 1.97-87.6 0 0 1.57-1.46q2.17-8.54 1.99-17.14-.04-1.7.95-.32.95 1.31 1.06 3.14.41 7.11 1.07 14.02a1.44 1.44 0 0 0 1.81 1.25l4.62-1.24a2.82 2.79 5.6 0 0 1.76-1.43q2.08-4.09 3.2-8.57.51-2.04 2.23-3.35a.72.72 0 0 1 1.14.4l1.83 7.72q.64 3.31 2.7 6.05a.71.66-7.6 0 0 .35.25l6.66 2.07q1.79.55 2.27-1.27l1.58-6.01q.47-.69 1.12-.44a.62.61 4.5 0 1 .39.45l1.57 7.44a1.37 1.37 0 0 0 1.53 1.07l4.19-.62q.86 1.46 1.83.76 1.38-.98 2.37-.7-1.28.92-2.55 1.74c-1.91 1.23-4.04 1.44-6.09 2.24a2.14 2.13 81.4 0 0-1.35 1.83q-.23 3.4-.06 6.69.46 8.55 1.05 17.65c.17 2.72.75 5.35 1.16 8.12q.28 1.82 1.29.28 1.3-1.98 2.72-4.02 1.22-1.75 2.04-4.7 1.67-6.06 2.21-10.13 1.03-7.67 1.44-19.97.25-3.29 1.14-8.03.62-3.31.29-7.27-.24-1.92.45-3.81.18-.5.7-.56.5-.05.74.41-.35.12-.7.12-.25-.01-.26.24-.01.16.03.32.07.31.32.49.78.54.69 1.54a1.33 1.24 36.7 0 0 .12.66l3.19 6.91a1.75 1.75 0 0 0 .85.85l5.5 2.49q.93.21 1.8 1.34.34.44.42-.11l.94-6.14q.3.8.16 1.63 0 .02-.01.02h.04q.06-.01.05-.07-.24-2.59.04-5.22.26-2.35-.36-4.54-1.42-5.03-3.38-9-.3-.61.37-.67.17-.01.33.04.46.16.72.55 1.16 1.76 2.53 3.24 1.56 1.38 1.9 3.77 1.32 5.54 5.1 10.47-1.75 4.8-1.05 9.34.24 1.57.07 2.94c-.28 2.24-2.11 3.44-2.4 5.73q-.92 7.42.96 13.4a.84.84 0 0 0 1.47.25c3.51-4.77 5.05-11.59 5.5-17.56q.72-9.55.39-21.8-.06-2.31.22-8l.48-8.71q-.03-1.2.45-2.11.1.24.09.44v.01q.36-2.47.42-4.44.06-2.22.2-4.63.15-2.49.09-4.64-.09-3.42-.14-6.96-.18-1.57.57-2.21.42-.36.64.15 5.1 11.72 2.75 24.34-.32 1.69.41 7.23.1 5.5 1.62 10.84c.74 2.57 1.21 5.28 2.12 7.83.78 2.16.88 4.41 1.33 6.65a.04.04 0 0 0 .07 0l.22-1.3-.19 13.62q-.03 2.22 1.04.28c3.06-5.54 5.52-10.47 6.42-16.89q.43-3.07-.19-5.98-.11-2.89-2.11-5.73-.33-.47-.37-1.03l-.62-9.54a.07.06-48.1 0 0-.13.01l-.01 11.15-.48 2.18q-.1.44-.53.56-.24.07-.41-.13-.21-.25-.27-.57c-.38-2.14-1.95-2.82-2.53-4.56q-2.82-8.59.42-15.37 1.14-2.4 4.21-3.49 1.16 1.26 2.31-.82 1.68-1.34 1.22-2.89-2.52-8.43-3.83-16.3c-.97-5.85-1.44-12.58 1-18.01q4.52-10.05 13.83-14.88 13.53-7.02 28.78-7.85 17.94-.97 33.68 9.28 7.63 4.98 15.4 10.46c3.52 2.49 9.8.2 13.8-.04q4.67-.28 9.18-.64.7-.06.6-.75c-1-7.15-.67-11.02 5.38-15.46q2.91-1.28 5.05-3.88l4.21-3.29c2.63-1.35 5.44-3.66 5.56-6.92q.24-6.14-.43-12.9a.26.26 0 0 0-.31-.23q-.85.16-.09.16c-3.08-6.37-7.58-11.07-12.94-15.83q-6.5-5.77-6.46-14.56.01-2.43 1.29-4.57a2.26 2.25-49.9 0 0-.22-2.63c-2.66-3.1-5.8-6.67-6.79-10.59-1.7-6.68.15-13.87 1.93-20.65 2.17-8.31 2.29-17.05.8-25.47q.13-2.26-1.18-2.85-.02 6.85-.28 9.48c-.71 7.07-3.12 12.74-7.16 19.19-5.96 9.52-9.03 20.3-2.82 30.57 2.08 3.44 4.53 6.11 5.08 10.37q.74 5.79-.05 11.16c-1.2 8.1-8.06 15.6-16.84 13.97q-3.89-.72-7.74-2c-10.7-3.56-21.84-6.49-33.04-7.61q-5.87-.58-11.47-1.14-19.96-1.97-41.84 1.87c-14.94 2.63-27.05 8.4-38.01 19.69-3.63 3.74-12.34 5.93-8.64 12.96q3.26 6.22 7.21 12.03c1.46 2.15 3.72 6.18 3.56 9.06-.17 2.99-1.34 5.54-1.15 8.61q.24 3.85.75 7.81.98 7.64.73 14.97c-.07 2.1-.46 4.2-2.18 5.6q-1.56 1.27-2.93 2.53c-1.72 1.58-2.34 4.55-3.16 6.76-1.61 4.31-7.35 5.84-11.2 3.57-2.47-1.45-6.19-3.93-5.68-7.12.58-3.62 1.84-7.25 1.47-10.92-.39-3.77-3.85-16.52-9.79-12.97-8.13 4.85-9.65 12.57-8.19 21.3q.82 4.9-3.37 8.51c-4.69 4.05-7.87-1.06-10.42-4.39q-2.16-2.83-6.82-5.23c-3.84-1.97-3.74-5.08-3.4-8.77q.89-9.64 1.41-18.75c.23-4.01-.79-7.28-2.52-10.75-1.31-2.63-.54-5.7.97-8.04q3-4.67 6.56-9.5 3.06-4.16 3.94-7.61.83-3.19-2.59-5.48-5.27-3.55-10.13-7.73c-10.52-9.05-24.58-14.19-38.23-16.22q-11.55-1.72-23.93-1.9c-6.75-.09-13.57.67-20.33 1.12-14.3.95-28.71 4.7-42.37 8.98-13.4 4.2-20.04-4.78-21.27-16.91q-.5-4.85.82-9.73c.84-3.14 2.84-5.54 4.52-8.23q7.25-11.61 1.59-23.6c-2.82-5.96-7.15-11.27-9.24-17.32q-2.69-7.81-2.09-16.37l-.18-2.84q-.05-.81-.3-.04-.19.6-.21 1.39Zm158.84 102.23c1.07.31 2.17.91 3.29.61q.56-.15.63-.73.95-8.31 2.88-13.56 6.01-16.35 8.39-35.48.43-3.52-.5-7.05a.97.96-10.4 0 0-1.04-.71q-.83.1-1.07.95c-2.35 8.32-4.89 16.96-8.14 24.8q-3.29 7.93-6.4 15.93c-1.47 3.8-3.99 13.58 1.96 15.24Zm54.63-.8a1.14 1.12-1.4 0 0 .66-.68c1.47-4.14.12-9.22-1.53-13.19q-2.95-7.13-6.55-14.16c-4.32-8.47-6.86-16.54-9.05-25.97q-.21-.91-1.01-1.43a.63.62 25.6 0 0-.93.32q-.76 2.34-.79 4.73-.1 7.29 1.9 15.06 2.65 10.25 8.55 25.45c1.33 3.41 1.78 6.89 3.26 10.2q.28.64.98.61 2.37-.11 4.51-.94ZM427.5 889.76q9.73 3.88 22.75 7.35 4.01 1.06 5.99 1.24 40.4 9.48 81.86 5.29 22.39-2.26 43.04-7.85 24.04-6.5 47.12-15.98 8.92-3.66 18.44-8.45c22.29-11.2 42.7-23.8 62.01-38.06q4.65-3.43 9.4-7.29c5.79-4.7 11.84-9.04 17.55-14.01q7.34-6.39 14.22-12.59 8.87-7.98 21.81-21.51c6.9-7.2 13.27-15.19 19.61-23.06q2.61-3.23 5.04-6.49 2.41-3.24 4.92-6.56 30.09-39.84 50.1-87.12 17.7-41.83 26.86-87.48 1.87-9.29 3.12-19.24c1.89-15.07 3.36-30.1 2.99-45.3a1.05 1.05 0 0 0-1.68-.82c-.63.47-.94 1.6-1.49 2.3q-5.72 7.25-12.08 14.18c-.63.69-1.11 1.61-1.16 2.54q-1.47 24.08-4.48 40.16-4.49 24.04-13.8 52.74-2.98 9.19-6.87 18.83-7.88 19.54-14.74 33.54-14.11 28.78-33.58 56.45-34.74 49.38-78.91 83.95-9.52 7.45-17.63 13.44-34.28 25.28-74.7 43.19-19.84 8.8-40.75 14.88-9.68 2.81-19.4 4.65-13.1 2.48-23.77 3.71-18.42 2.13-39.76 1.17c-17.69-.79-35.61-4.17-52.52-9.42-7.9-2.45-15.91-4.87-23.54-7.91q-29.22-11.66-56.01-28.45-26.85-16.82-53.79-38.42-7.39-5.93-15.56-13.35-11.06-10.06-19.96-19.17c-34.01-34.81-62.83-75.42-84.03-119.03-3.25-6.7-6.19-14.15-9.24-21.18q-3.71-8.54-6.23-16.06-14.62-43.8-16.84-89.75c-.11-2.33-.43-5.16-1.97-6.93q-7.2-8.32-13.13-17.63a.75.74-32 0 0-1.02-.23q-.39.25-.43.74c-.64 7.69.39 15.64.63 23.19q.21 6.87.63 11.89 3.23 38.68 12.69 70.91c2.07 7.05 5.25 16.86 8.46 24.91q3.1 7.76 6.22 15.37 7.62 18.57 20.04 39.61 12.59 21.3 26.42 40.58 25.64 35.75 56.86 66.44c10.59 10.41 22.83 21.01 34.04 29.57q14.34 10.96 32.04 22.96c23.93 16.22 49.35 30.02 75.61 40.08q4.36 1.67 8.6 3.48Zm183.64-319.74q-.13-.26-.08-.54.84-5.55 1.97-10.55.71-3.1-2.28-2.02l-1.97.71q-3.49 1.26-3.94 4.94c-.62 5.04-1.25 16.31 4.57 18.89q2.68 1.18 5.66.67a2.27 2.27 0 0 0 1.88-2.11q.33-5.77 1.21-11.39a4.3 4.29-15.2 0 1 1.55-2.7c3.13-2.56 6.25-4.98 8.94-8.05q6.48-7.39 15.14-13.69.39-.28.55-.74.36-.99-.58-.51-19.33 9.84-31.81 26.23-.11.13-.16.3-.09.27-.18.53-.21.59-.47.03Zm-228.6406-23.4744a2.43.33 32.5 0 0-1.8721-1.5839 2.43.33 32.5 0 0-2.2267-1.0273 2.43.33 32.5 0 0 1.8721 1.5839 2.43.33 32.5 0 0 2.2267 1.0273ZM404.97 565.71q.21-.2.3-.46.17-.46-.09-.86c-.8-1.23-1.48-2.43-2.54-3.46q-8.43-8.19-18.85-14.37a.44.44 0 0 0-.66.33q-.01.13-.03.26-.03.26.17.42 7.1 5.84 12.01 12.94c1.76 2.56 3.99 4.65 5.85 7.14a1.62 1.61-21.4 0 0 1.47.64q1.63-.18 1.87-1.61.09-.57.5-.97Zm3.78.79-.87-.52q-.63-.38-.51.34l.97 5.99.14 10.3q.02.83.8.57l7.09-2.29a1.15 1.13-88.8 0 0 .73-.71q2.36-6.89 2.33-16.27-.01-2.23-1.01-4.11-1.64-3.07-5.29-4.04c-1.27-.34-2.76-.43-3.52.91q-.5.89-.94 1.76-.25.49-.09 1.02 1.35 4.39.17 7.05Zm52.24 305.27q.57.56 1.26.62.52.05.37-.45-.13-.48-.81-.67c-3.09-3.8-6.7-7.28-9.69-10.89q-26.4-31.86-33.96-41.31-21.37-26.73-43.85-53.55c-2.66-3.17-5.08-6.53-7.6-9.82-1.4-1.83-3.14-1.93-5.25-1.36q-2.71.75-5.66 1.74-8.72 2.95-32.55 11.63c-2.81 1.03-5.87 1.79-8.78 2.56q-1.55.41-2.46-.9-6.88-9.87-14.61-19.55c-1.43-1.78-2.91-4.61-2.93-6.85-.3-32.6.51-71.64-.33-105.47-.08-3.21-2.41-5.75-4.38-8.02-8.61-9.96-17.26-19.54-25.66-29.94q-16.5-20.41-32.24-38.49-1.73-2-1.7.65.31 27.85 2.17 52.62c.45 6.08.51 13.4 4.01 18.73q2.34 3.57 4.52 6.38 14.44 18.6 30.5 38.6 5.34 6.66 11.24 15.28 1.31 1.93 1.35 4.92.09 9 .02 19.48-.04 4.46-2.27.6-2.17-3.75-4.89-7.17-8.49-10.73-17.67-21.81c-4.04-4.88-8.52-9.44-12.93-13.99q-1.12-1.17-2.95-2.13-.54-.28-.59.33-.27 3.39 1.33 6.05 7.97 13.25 19.26 31.56 5.54 8.96 10.95 16.77 7.01 10.12 15.19 21.74 9.17 13.05 18.59 24.07 11.81 13.8 26.19 27.45 12.59 11.94 33.72 27.2 11.44 8.26 27.79 17.06 19.21 10.33 39.35 18.49 6.67 2.71 17.98 6.07 3.97 1.18 7.97 1.77Zm101.44.19q-.38.13-.74.32-.1.05-.17.14-.11.13.02.31t.35.13l.84-.22q11.62-2.24 15.38-3.5 24.01-8.01 46.59-19.41 5.05-2.55 10.46-5.7c8.56-4.99 15.31-9.93 23.1-14.63q3.84-1.9 6.89-5.16c3.31-3.16 7.6-5.78 10.68-8.42q4.05-3.48 7.88-6.64c6.43-5.33 12.17-11.35 18.02-17.22 3.78-3.79 6.93-8.34 10.61-12.27q3.85-4.1 7.83-9.26 12.21-15.85 21.26-28.42 8.96-12.45 25-38.99 6.69-11.07 12.28-21.77 1.64-3.12 2.17-6.87.22-1.59-1.23-2.09a.73.71-59.1 0 0-.76.2q-20.09 22.32-37.06 46.28-1.04 1.47-1.92 3.12-.8 1.49-1.67 3.28-.66 1.34-1.37 2.66-.49.92-.36-.11.37-2.94.76-5.72 1.6-11.37 1.2-24.3c-.03-.91.49-2.18 1.03-2.9q14.18-19.14 28.35-38.3c5.51-7.45 12.04-15.5 17.72-22.97q4.09-5.37 4.53-12.46.63-10.17 1.39-19.97c1.01-12.92 1.22-24.74 1.42-37.11q.05-3.1-2.07-.84-5.99 6.41-10.82 12.33-23.6 28.94-47.4 57.75-1.16 1.41-1.19 3.28c-.37 30.2-.31 61.27.51 91.99q.18 6.64-.79 12.26-.47 2.69-2.07 5.14-9.23 14.19-17.89 25.58a2.39 2.39 0 0 1-2.75.79q-23.43-8.85-46.28-16.98c-3.27-1.17-4.64-1.95-6.97.91-24.14 29.57-47.16 58.82-70.46 88.27-2.71 3.43-5.71 6.67-8.32 10.28-2.18 3.02-4.7 5.64-7.01 8.53q-3.48 4.35-6.97 8.68ZM359.52 593.09a2.2 2.19 72 0 0 1.89.97l5.81-.18a1.23 1.23 0 0 0 1.19-1.26q-.14-5.24-.37-10.91-.11-2.63-1.98-4.69-3.88-4.25-7.42-7.68-2.77-2.68-6.12-.53-3.04 1.95-5.73 3.58a.91.9-32.4 0 0-.29 1.28l13.02 19.42Zm315.23-16.11q1.24-2.03 2.59-3.57a.64.63-50.4 0 0-.08-.92c-2.51-1.96-6.19-3.99-9.49-3.99q-.54 0-.97.35c-4.22 3.37-9.01 8.01-9.48 13.54q-.53 6.19.62 11.81.11.56.68.64 4.1.56 6.1-2.3 4.45-6.37 10.03-15.56Zm-236.57 36.19q.25 2.69 1.45 4.99.07.15.18.21.14.09.27.1.34.03.25-.3-.53-1.88-.47-2.53.43-4.41 1.1-6.96 1.27-.64.6-4.02l1.39-6.34q.42-1 .05-2.04.32-1.96.15-2.54-1.36-4.53-1.59-8.56-.25-4.19-.76-6.84-.01-.07-.07-.06l-.25.05a.25.25 0 0 0-.21.29q1.07 8.19-1.66 15.96-2.32-.52-2.42-2.08-.5-7.64-1.98-12.9-.81-2.84-2.88-4.09-3.52-2.13-7.99-1.1-.55.13-.69.68l-.93 3.66a1.74 1.73 28.2 0 0 .53 1.74q3.35 2.97 5.32 7.49 3.04 6.92 6.22 13.17 1.22 2.4 1.98 4.8.06.17.24.18.17.01.2.13 1.07 3.52 1.97 6.91Zm261.3436-29.6962a.26.26 0 0 0-.0808-.3587l-14.4371-9.1267a.26.26 0 0 0-.3587.0808l-.0106.017a.26.26 0 0 0 .0808.3587l14.4371 9.1267a.26.26 0 0 0 .3587-.0808l.0106-.017Zm-361.9772-8.8292a4.45.19-27.8 0 0-4.025 1.9073 4.45.19-27.8 0 0-3.8478 2.2435 4.45.19-27.8 0 0 4.025-1.9073 4.45.19-27.8 0 0 3.8478-2.2435ZM592.22 599q2.93-4.8 5.83-10.59c1.26-2.53 3.05-5.23 3.56-7.97 1.01-5.43-4.59-6.13-8.37-5.57-2.08.31-2.72 2.6-2.95 4.36q-1.27 9.65.76 19.57.32 1.59 1.17.2Zm-174.43 53.81a.27.27 0 0 1-.5-.01c-.87-2.21-1.39-4.35-2.68-6.42q-2.6-4.17-4.81-8.56c-3.8-7.55-3.83-17.25-3.75-25.78.05-5.88-2.75-9.08-4.1-14.25-1.61-6.13-2.12-12.46-3.59-18.59q-.71-2.94-3.66-3.6-.49-.11-.93.02-2.19.69-1.77 2.94 1.05 5.61 4.41 12.66 2.96 6.21 2.21 12.85c-.42 3.74-3.47 6.04-4.12 9.74-1.1 6.28-.42 14.7 1.44 20.45 1.78 5.51 5.13 10.92 7.88 16.13 2.92 5.54 3.62 12.04 4.76 18.04q.37 1.92 1.58 3.39 5.94 7.22 10.94 13.49c3.81 4.79 7.43 10.28 10.32 15.68q2.45 4.56 4.42 10.96c1.43 4.65 5.36 3.05 8.36 1.56a2.65 2.64-9.5 0 0 1.46-2.04q.27-2.09.18-4.43-.13-3.75 1.84-.56c1.02 1.67 1.96 3.37 3.31 4.78q2.56 2.68 5.09 5.66 2.28 2.69 1.47-.75-2.76-11.64-2.31-23.47c.08-2.06-.81-3.34-1.92-4.9q-1.18-1.67-1.77-3.82-.22-.79-1.01-.83a.77.75-75.5 0 0-.71.43q-2.93 5.97-4 12.85-.21 1.34-1.29 1.95-.78.45-.75-.45.33-8.35-.97-15.52-1.01-5.59-3.28-.38-1 2.32-1.71 4.71-.63 2.13-.97-.06-.42-2.72-.44-5.33c-.04-4.77-.84-9.63-1.8-14.25a.88.87 78.8 0 0-1.01-.68q-.5.09-.61.55-1.38 5.7-3.61 10.62a.48.48 0 0 1-.69.2c-.94-.59-1.62-1.64-1.59-2.78q.1-3.29.46-6.37.28-2.47-.29-4.68-.2-.8-.6-.08-.69 1.23-.68 3.03.01.57-.24 1.09-1.44 3.11-.99 6.15.11.71-.42.22-.7-.66-.69-1.56 0-4.93 2.08-10.32c.37-.98-.06-2.55-.51-3.45q-2.43-4.8-3.51-10.38a1.31 1.31 0 0 0-1.94-.88q-.56.33-.71 1.03-.47 2.27-1.28 4Zm183.53 21.84q-.8-.84-1.78-.39.93-1.46.42-3.07-.16-.5-.08-1.01.33-1.98-.08-3.97-.23-1.08-1.14-1.36-.41-.13-.72-.44a.48.48 0 0 0-.81.3q-.46 4.49.82 8.46-1.37-.42-1.05 2.36-.89-1.76-1.93-3.47-.81-1.35-1.15-2.99-.33-1.6-.93-3.18-1.25-3.26-2.11.13-1.94 7.62-2.85 16.28a.62.62 0 0 1-1.1.33q-.87-1.08-1.5-2.48-.37-.85-1.17-1.05-1.39-.34-1.49 1.09-.52 7.28-1.65 13.54-.74 4.05-1.71.05-1.26-5.17-1.97-10.71-.14-1.07-1.21-.83a1.39 1.39 0 0 0-.94.75c-2.25 4.71-7.01 8.5-6.97 14.01q.06 9.2-1.74 17.93a.73.73 0 0 0 1.07.78c2.17-1.21 4.64-2.05 6.5-3.74q4.16-3.77 5.04-9.07.04-.23.27-.21h.01q.23.03.22.25-.1 5.57 1.18 11.01.06.65.73.76 2.43.43 5.33-.05.45-.07.11-.39l-.26-.23q.52-.12.93-.53 1.64-1.92.89-3.8 1.17-7.3 2.03-9.21 1.45-3.2 7.35-11.77c1.59-2.29 3.43-4.18 5.04-6.39 4.35-5.95 11.32-10.97 13.03-18.36q2.45-10.57 4.79-15.78c2.43-5.41 6.04-10.25 7.46-16.17 1.98-8.26 2.14-16.04-.59-23.49-1.93-5.28-.91-12.33.87-17.66q2.29-6.89 4.29-13.82.22-.76-.56-.86l-4.3-.53q-.66-.08-.92.53-2.05 4.84-2.53 10.2-.38 4.36-1.44 8.54-1.37 5.44-3.46 10.64-1.01 2.49-1.01 5.14-.01 6.6-.55 12.74c-.59 6.78-3.21 12.89-7.09 18.49q-2.42 3.51-3.45 7.33a.65.65 0 0 1-.92.41q-1.17-.57-1.92-1.68a.96.95-51.6 0 0-1.68.2q-1.91 4.99-2.13 10.23-.03.73.63 8.07.38 4.2-.12 8.14Zm-316.85-71.51 7.3 7.07q-.6-.01.14.75 5.23 5.33 14.53 14.84 2.87 2.92 6.21 5.12a1.04 1.04 0 0 0 1.12 0q.86-.54.16-.75.39-1.25-.69-2.41-5.05-5.43-8.81-8.95-11.33-10.6-23.66-20.9l-13.75-11.83q-.18-.15-.1.06.05.15.18.26 8.71 8.23 17.37 16.74Zm445.37 8.74q-2.62 2.53-5.56 4.86-.25-.15-.28.24-.03.29-.25.48-10.28 8.65-12.9 11.15-1.19 1.13-.37 3.17.22.56.77.29 1.39-.66 2.31-1.8.11-.14.27-.06.16.07.21.19.1.27.27.05.15-.18-.07-.26a.11.11 0 0 1-.03-.19q2.36-1.7 4.32-3.64 6.15-6.08 11.58-11.36.24-.23.26-.57.01-.21.15-.37.22-.26.46-.02.15.16.26-.03.34-.52.01-.11 9.07-9.15 17.55-18.1 2.6-2.74 5.16-5.48.13-.13 0-.26h-.01q-.12-.13-.25-.01-10.35 9.62-21.07 18.84-.94.8-2.79 2.99Zm-156.26 1.65-1.49 18.22q-.23 2.9 1.72.74 3.18-3.53 5.12-9.1.17-.48.07-.98l-2.61-13.1q.17-1.89-.48-3.75-.88-2.56-1.05-3.52-.86-4.86-2.37-9.52a.08.08 0 0 0-.15.04q.63 4.65 1.21 9.62.28 2.38.08 5.66-.17 2.83-.05 5.69Zm-207.67-10.81a.8.8 0 0 0-1.04-.76q-2.56.82-4.92 2.27-14.81 9.1-29.24 19.83c-.73.55-1.18 1.54-1.18 2.44q.2 50.71.08 101.42c-.01 5.3.46 13.76-.28 20.7a1.02 1.02 0 0 0 1.39 1.05l32.97-13.16q2.16-.87 2.16-3.2l.06-130.59Zm331.01 26.38a.83.83 0 0 0-.35-.68l-36.27-25.88a.83.83 0 0 0-1.31.67l-.11 132.8a.83.83 0 0 0 .53.77l36.35 14.37a.83.83 0 0 0 1.13-.77l.03-121.28Zm-237.19 10.32q.05.84.48 1.24.48.45.43-.21l-.48-6.2-1.1-20.08a.92.91 81.4 0 0-1.13-.84l-2.48.63q-.32.09-.32-.25v-.69a.48.47 85.8 0 1 .4-.47q1.97-.27 2.23-2.49.16-1.37-1.11-1.92l-3.52-1.55a1.01 1 12.8 0 0-1.41.88q-.12 3.31-.31 6.73c-.35 6.44.9 12.54 3.73 18.11q1.52 3 4.59 7.11Zm84.74 7.51q.27.88.68.05.35-.71.54-1.5.1-.46.41-.81 4.37-4.95 7.03-11.34c2.62-6.27 2.66-14.13 1.76-20.85q-.25-1.9-1.71-2.65-3.03-1.56-5.7-3.22a.95.95 0 0 0-1.42.58q-.79 3.15-1.11 6.06-.9 8.4-1.9 19-.74 7.7 1.42 14.68Zm-48.71-28.62q-.21-.57-.17-.85.16-1.21.08.01-.57 8.76-.15 17.87.01.04.04.04h.03q.07 0 .06-.06-.2-1.34.21-2.37.3 9.89 3.49 19.26.59 1.73 3.33 6.02c1.25 1.95 2.03 4.55 3.72 6.49q1.4 1.62.95-.47-.49-2.28-.61-4.49-.64-12.07-.88-27.98-.14-9.53-2.22-18.88a1.44 1.43 81.9 0 0-1.48-1.12c-2.7.16-6.82.15-6.17 4.22q.13.81-.23 2.31Zm17.36 46.24q.16.14.28.32.4.62.78-.02 6.41-10.95 8.24-19.21 1.76-7.97 1.45-24.17-.06-2.99-.65-5.5-.22-.94-1.09-1.33-3.87-1.75-7.54-2.22a1.46 1.45-81.2 0 0-1.61 1.18c-.3 1.69-.7 3.38-.73 5.11q-.32 17.69-.22 34.76c.02 3.53.56 6.97.79 10.47a.95.93 19.6 0 0 .3.61Zm-37.85-16.1q.22.42.48.62.5.36.54-.25.65-9.62-.2-19.05l-1.35-16.27a1 1 0 0 0-.89-.91q-2.51-.27-4.45.53-.49.21-1 .08l-2.63-.65q-.74-.19-.94.56-.93 3.59-.75 6.03.48 6.62 3.05 14.02c1.83 5.28 5.2 10.27 8.14 15.29Zm7.78-34.96q-1.51-.39-2.81.15-.49.2-.54.74-.43 5.29-.34 10.99.01.67.3 1.27.25.5.14 1.06-.2.98-.06 2.11.43 3.67 1.11 7.3 0 .02.01.02h.01q.01 0 .01-.02-.06-.39.17-.58 1.57 8.5 6.98 15.49.14.18.33.57.15.33.48.45a.57.57 0 0 0 .77-.49c.31-3.48 1.1-6.66 1.15-10.32q.12-9.35.1-21.84c0-3.58-.1-8.04-4.36-7.65q-2.18.2-3.45.75ZM314.78 756.68a.31.31 0 0 0 .42.29l7.48-2.91a.31.31 0 0 0 .2-.29l-.17-122.48a.31.31 0 0 0-.39-.3l-7.11 2a.31.31 0 0 0-.23.29l-.2 123.4Zm395.24-123.66q-2.49-1.11-4.94-1.8a.93.92 8.1 0 0-1.18.88q-.51 58.42-.11 118.9.02 2.28.23 5.03.16 1.95 2.11 1.92l3.53-.04q2.13-.03 2.18-2.15.18-6.88.23-13.51.38-50.72.03-102.54-.03-4.13-.99-6.41-.08-.19-.28-.19h-.28q-.28.02-.53-.09ZM516.05 754.16q-.69-.85-.68.6a1.11 1.11 0 0 1-.36.82q-.68.64-.93 1.75-1.34-8.5-6.48-15.18-.66-.85-1.27-1.75c-3.09-4.53-10.72-.57-13.91 2.03-1.46 1.19-2.71 3.24-2.05 5.14 1.11 3.21-.3 6.76-1.45 9.81a.28.27-50.5 0 1-.49.05q-1.08-1.79-1.23-3.73c-.47-5.87-7.01-8.65-12.03-8.87a.86.85-1.5 0 0-.89.93c.6 6.69 1.5 12.73 2 19.98q.46 6.65 1.58 13.25.2 1.22-.25 2.32-.28.69-.5-.02-1.41-4.49-2.6-9.65-1.47-6.32-2.51-9.67c-3.11-10.07-5.58-21.49-11.51-29.99q-5.08-7.26-15.24-8.78a1.2 1.2 0 0 0-1.34.9q-.33 1.31-1.07 2.28-.51.67-.63-.16-.4-2.73-1.64-4.61a1.7 1.65 83.6 0 0-.73-.6q-2.9-1.22-4.96-3.42c-1.52-1.62-2.28-4.07-3.14-6.19q-1.04-2.56-2.32-4.77-6.4-11.03-11.17-16.91-3.93-4.84-7.91-10.43-.14-.21-.39-.25-.86-.17-.77.7.92 8.71 2 17.59c.59 4.94 3.58 8.75 6.49 12.46 4.09 5.22 7.8 10.72 11.78 15.85q2.34 3.03 4.5 6.23 2.15 3.18 4.43 6.26 3.34 4.5 6.56 9.51 12.09 18.85 22.54 40.91 2.06 4.34 4.66 12.3.13.42-.24.64l-.22.13a.24.24 0 0 1-.34-.11q-3.53-7.35-5.72-10.9-6.65-10.73-16.94-25.88-5.54-8.14-11.61-16.46-14.68-20.1-29.05-40.84-2.96-4.28-5.48-8.41c-3.49-5.72-6.76-11.01-12.04-15.37q-.42-.35-.54-.88c-.91-4.05-.97-8.23-1.87-12.34-1.41-6.44-3.28-12.97-4.1-19.49q-.49-3.97-1.18-7.82-.42-2.3-1.09-.07-.21.67-.32 1.24-1.95 10.17-1.88 20.29.09 13.72.47 30.94c.07 3.15 1.47 5.56 3.19 8.05q28.76 41.58 58.48 80.52 11.71 15.35 23.28 28.22c2.41 2.69 5.65 3.56 9.31 2.92q5.68-1.01 11.36 3.1 7.42 5.38 14.92 10.73c3.32 2.37 7.03 4.64 10.94 5.66q2.83.73 5.9-1.21 8.34-5.29 15.8-10.77 4.16-3.06 9.12-6.14 4.02-2.51 7.72-1.96c3.55.52 6.68.78 9.13-2.47q.67-.88 1.37-1.7 12.21-14.46 24.65-31.3c18.73-25.34 37.62-51.42 56-77.63 2.21-3.15 3.46-5.89 3.59-9.71.59-16.61 1.02-32.46-1.79-48.96a.83.83 0 0 0-1.64.01c-.49 3.12-.34 6.31-.75 9.36q-.42 3.17-1.78 8.63-2.32 9.28-4.13 21.15c-.58 3.82-4 3.38-5.94 6.16q-18.99 27.26-42.32 59.99c-12.01 16.85-23.62 34.05-33.75 51.54q-1.5 2.59-3.09 4.08-1.41 1.31-.48-.38 2.67-4.85 4.81-10.38c2.61-6.73 5.83-12.64 8.89-19.08 7.48-15.82 17.17-29.77 27.06-44.05 4.67-6.74 10.41-13.88 15.75-21.58q4.68-6.76 5.73-9.64.99-2.73 1.35-6.17.75-7.13 1.41-13.49.41-3.9-2.04-.83-4.63 5.81-9.77 12.98-4.33 6.03-7.14 11.82-3.19 6.57-6.17 13.47-1.13 2.61-3.89 3.39c-3.18.9-5.08 2.85-7.19 5.18a2.55 2.54 43.4 0 1-3.67.1q-1.65-1.62-3.55-1.17c-5.18 1.23-10.2 7.4-12 11.84-2.41 5.94-4.57 12.51-6.16 18.73q-3.6 14.15-7.29 24.22-1 2.74-1.14-.17-.17-3.57 1.49-8.71c.57-1.77.29-3.93.65-5.87q2.01-10.59 3.3-23 .11-1.01-.05-2a.35.35 0 0 0-.57-.21q-6.82 5.85-9.17 14.99-.35 1.36-1.41 2.67-.43.52-.52-.14-.05-.41-.34-.7-.38-.38-.3-.91.11-.71-.22-1.32-.23-.43-.26-.93l-.61-9.08q-.08-1.25-1.27-1.64-3.59-1.18-6.95-1.76c-2.05-.35-4.24.19-6.12-.68q-.61-.28-.92.32-3.62 7.02-4.75 14.55Zm35.68-41.9c-.5-6.51-.48-12.95-2.62-19.17a1.44 1.43-35.6 0 0-2.49-.41q-1.23 1.58-1.78 3.65-2.28 8.61-4.86 17.59-.54 1.89-1.76 3.54a.92.92 0 0 1-1.33.15q-5.7-4.79-8.43-11.52-1.1-2.71-2.12.03c-1.14 3.07-2.5 6.4-4.45 8.98q-1.75 2.31-2.42 4.63c-1.17 4.09-.44 12.1 4.61 13.74 2.82.92 8.93 1.59 10.03-2.51q.64-2.39 1.58-.09 1.6 3.94 4.94 7.94a1.61 1.6 52.5 0 0 2.15.29q3.2-2.24 5.04-5.63 4.67-8.64 11.26-15.58c4.69-4.93 4.98-9.95 5.46-16.53q.53-7.27-3.02-12.26-.4-.57-1.05-.87a.87.86 15.8 0 0-1.23.68q-1.43 12.93-5.4 23.65-1.73 4.67-2.11-.3Zm-78.14 22.23q.37 1.83 1.77 3.01.38.31.85.36 1.08.1.83-.65 3.95-.95 7.3 1.65.39.3.87.16 1.92-.55 3.38-1.37 6.87-3.91 13.65-5.93 1.75-.52 1.78-2.42.06-3.26.31-6.81.04-.54.57-.62l.29-.05a.43.42 81 0 1 .48.35q.71 4.34.9 8.63c.15 3.42 2.88 6.15 4.88 8.66a.76.75-56.8 0 0 1.32-.28c.21-.77.07-1.39.34-2.2q3.96-11.96 1.37-24.24c-.78-3.68-2.85-6.95-4.19-10.5q-.27-.72-.91-1.09-.74-.43-1.03.38-2.26 6.23-4.55 12.68-.8 2.26-1.85 4.07a1.03 1.03 0 0 1-1.48.34c-2.35-1.62-3.41-3.73-4.94-5.99q-2.79-4.12-4.65-8.75-.2-.51-.66-.87-.56-.45-.81.22-2.55 7.09-4.03 14.93-.59 3.17-.05 6.12.27 1.45-.43.15c-.88-1.63-1.74-3.18-2.17-5.01-1.8-7.72-2.59-15.81-4.61-22.97q-.87-3.12-2.58-5.6a.75.74-48.9 0 0-1.28.09q-.82 1.61-1.09 3.56-1.66 12.07-2.21 23.26-.11 2.28-.8.11-2.79-8.79-4.73-18.67-.69-3.49-1.63-6.74a1.21 1.2-.8 0 0-.86-.83q-1.96-.48-2.87 1.03c-2.47 4.1-1.43 8.67-1.14 13.19.44 6.85 3.99 13.45 8.79 18.17q2.53 2.48 5.87 10.47Z"/><path fill="#b9b3b6" fill-opacity=".98" d="M543.02 84.67q25.19 4.36 49.69 11.64-.47.15-1.21-.05-8.96-2.52-22.4-5.85-6.35-1.58-13.3-2.92-6.82-1.31-13.38-2.57a.03.03 0 0 1 0-.06q.33-.01.6-.19ZM594.02 96.72l4.7 1.56q-.47.28-.96.07-1.95-.82-3.98-1.41-.13-.03 0-.07.16-.04.24-.15ZM599.35 98.49l6.63 2.04-6.63-2.04ZM623.55 106.72l4.39 1.92q-2.17-.3-4.39-1.92ZM628.42 108.87q18.71 6.98 36.27 16.22l-36.27-16.22Z"/><path fill="#292829" d="M632.28 288.94q-.29 3.2.83 3.64 2.45 8.42 4.2 11.09 5.66 8.59 10.8 16.68c2.42 3.81 2.81 9.57-.84 12.75q-3.68 3.19-8.6 5.02-13.95 5.19-25.58 11.51-45.8 24.9-85.77 58.42c-3.96 3.32-7.9 6.14-11.97 9.05q-4.37 3.13-9.07.18-3.81-2.39-6.91-4.86-28.98-23.04-40.69-31.08-20.89-14.33-40.93-26.34-17.01-10.18-35.4-17.54c-4.09-1.64-8.34-4.78-8.64-9.73q-.33-5.69 2.61-10.07 3.57-5.32 6.95-10.66c2.17-3.42 4.05-7.18 5.2-11.1q2.74-9.37 4.27-18.91.93-5.8 2.06-11.48.41-2.02 1.34-4.02.34-.74.95-.21c.45.4.71 1.12.72 1.7q.13 11.91 2.46 23.52c.96 4.83 2.42 10.2 5.09 14.34 4.88 7.58 10.21 13.01 18 17.79 7.61 4.67 15.43 9.68 22.37 15.12q4.9 3.84 9.84 7.19a.91.91 0 0 0 1.42-.83q-1.34-16.7-2.25-33.12c-.39-6.89-1.38-14.06-1.93-21.23q-.33-4.34-.8-8.63-4.72-42.32-13.6-85.72-.98-4.77-2.26-9.42-.41-1.47 0-2.99a.41.41 0 0 1 .76-.09q2.79 4.97 4.46 9.72 7.86 22.39 12.3 45.64.37 2.83.64 5.59.06.64.34 1.46.25.72.37 1.47.28 1.73 1.08 3.64 1.85 9.28 3.38 19.08 5.81 37.38 7.42 71.82.47 9.91.95 13.6.05.42.33.75 1.33 1.61 2.96 2.93 12.3 9.9 25.43 20.03 6.1 4.71 11.87 9.61.54 1.09 1.57 1.55.86.38 1.99-.13 1.27-.58 2.04-1.16 13.39-10.08 25.97-21.23l8.19-6.98q2.06-.63 2.83-2.31 1.5-1.62 1.58-4.21 1.39-47.03 8.66-94.72 4.19-27.5 10.58-52.16c1.99-7.65 4.92-15.24 7.17-22.9q.38-1.29 1.34-2.19a.33.33 0 0 1 .55.24q.06 2.73-.43 5.48c-1.76 9.83-3.72 19.62-5.08 29.41q-3.29 23.67-5.41 41.12-5.07 41.79-6.31 87.2-.02.61.58.54.55-.07 1.12-.41c5.64-3.46 10.93-7.46 16.45-11.04q13.28-8.62 23.12-16 9.86-7.41 14.75-19.09 1.46-3.48 2.98-12.27 1.87-10.83 2.01-21.17.04-2.77 1.59-.47c.58.87 1.18 1.91 1.39 2.95 1.06 5.31 1.84 11.07 3.05 16.6q.89 4.05 1.56 8.04Zm-213.8 60.76 8.03 4.37q10.12 5.3 19.82 11.57c13.16 8.52 26.74 17.4 39.83 27.45q10.89 8.38 20.14 14.53 4.89 3.25 10-.49 8.56-6.27 20.11-14.9 16.61-12.4 40.15-27.08 13.08-8.15 42-23.79 2.55-1.38 5.24-3.26 3.44-2.4.45-5.39c-2.61-2.61-5.43-1.43-8.84-.05q-51.74 21.1-95.69 58.57-3.9 3.32-8.03 5.6-.88.49-1.7-.1-6.68-4.77-13.16-10-11.29-9.1-28.41-21.38c-18.4-13.2-38.91-23.58-60.13-32.23-4.17-1.7-8.76-3.91-11.83 1.25a1.97 1.97 0 0 0 .39 2.49q2.08 1.84 4.58 3.15 8.76 4.59 17.05 9.69Z"/><path fill="#b9b3b6" fill-opacity=".98" d="m453.67 234.27 2.43 12.16q-.8-1.91-1.08-3.64-.12-.75-.37-1.47-.28-.82-.34-1.46-.27-2.76-.64-5.59ZM632.28 288.94l.83 3.64q-1.12-.44-.83-3.64ZM762.72 315.03l-.06 30.68.06-30.68ZM777.32 334.29l-.31 64.42.31-64.42Z"/><path fill="#292829" d="M652.46 361.01q30.4-10.52 61.34-17 2.92-.61 5.58-.29 2.74.33.17 1.34c-16.1 6.35-32.65 12.5-49.21 17.71q-41.02 12.91-85.15 29.55-10.44 3.94-18.07 8.16-.12.07-.2-.04l-.15-.24q-.09-.12.03-.22 8.63-7.15 19.88-12.64 13.4-6.55 23.94-10.79 18.66-7.51 41.84-15.54ZM309.47 345.09q4.39 2.14 9.12 1.88 2.99.6 6.08 1.33 8.67 2.04 16.59 4.06 8.36 2.13 16.36 4.78 30.39 10.06 59.48 22.48 10.87 4.65 20.94 10.42l8.62 5.24a1.04 1.03 13.1 0 1 .49.78q.07.65-.39 1.25-30.95-12.24-41.27-15.84-21.3-7.43-42.62-14.85-5.94-2.07-19-6.24-14.71-4.7-29.13-10.26c-2.75-1.05-7.6-2.28-11.24-4.3a.32.31-57.8 0 1-.1-.47q.54-.72 1.42-.45.38.12.76-.01 1.91-.67 3.89.2Z"/><path fill="#b9b3b6" fill-opacity=".98" d="m309.47 345.09 9.12 1.88q-4.73.26-9.12-1.88ZM418.48 349.7l8.03 4.37-8.03-4.37ZM551.03 353.99q-.77 1.68-2.83 2.31l2.83-2.31ZM540.01 363.28q-12.58 11.15-25.97 21.23-.77.58-2.04 1.16-1.13.51-1.99.13-1.03-.46-1.57-1.55 1.18 1.17 2.61 1.36.51.07.92-.25l28.04-22.08ZM325.92 391.71q-.53-.53-.69-1.49.02-.79.21-1.39.25-.77.3.04l.18 2.84ZM697.37 392.74l-1.18-2.85q1.31.59 1.18 2.85ZM438.04 390.04q5.37 2.44 6.66 3.27 9.33 5.98 12.57 7.8.5.28-.04.45-.6.19-1.24-.1-4.62-2.11-9.23-4.15.46-.6.39-1.25a1.04 1.03 13.1 0 0-.49-.78l-8.62-5.24ZM761.06 403.47l-.39 13.99q-.28-7.43.21-14.83v-.01.01q-.02.48.18.84ZM784.02 402.54l-.32 16.18.32-16.18ZM760 434.05l-.57 19.16.57-19.16ZM264.09 446.28l.24 13.43-.24-13.43ZM715.03 506.93c1.83-1.62 4.91-3.72 4.89-6.39-.03-4.55.23-8.94-.16-13.5q-.76 0 .09-.16a.26.26 0 0 1 .31.23q.67 6.76.43 12.9c-.12 3.26-2.93 5.57-5.56 6.92Z"/><path fill="#292829" d="M556.82 544.78q-1.06 1.94-1.6 3.79-.38 1.31-.92 2.56-.74 1.68-.56-.14.74-7.79 3.98-13.9 1.43-2.7 4.89-5.47a2.01 2.01 0 0 0 .72-1.16c1.74-8.07 3.01-14.29 10.01-19.85q7.22-5.75 15.88-8.39 15-4.59 31.53-4.9.55-.01.12.33-1.13.9-2.42 1.26-6.18 1.74-12.37 3.39c-14.24 3.8-28.44 16.84-31.32 31.3q-.59 2.92-1.15 5.57-.3 1.4-1.77 2.5-.42.31-.67-.14c-.93-1.71-1.05-4.19-2.76-5.28q-2.31-1.46-4.96.64-4.15 3.3-6.63 7.89ZM466.06 548.13c-2.08-3.25-6.48-9.89-10.44-10.69-2.78-.55-2.63 2.61-2.6 4.35a1.03 1.03 0 0 1-1.69.82q-2-1.65-3.02-4.44c-2.08-5.76-4.29-11.5-8.15-16.34q-8.11-10.19-19.96-15.41c-2.37-1.04-5.47-1.94-8.13-3.03-3.32-1.36-7.56-2.05-11.26-3.86q-.21-.1.02-.09 15.67.57 31.2 5.69 11.99 3.95 19.64 13.4 3.48 4.29 6.1 10.05c2.82 6.18 7.86 11.17 8.98 18.06q.14.9-.03 1.88-.07.43-.41.16-.17-.13-.17-.29 0-.14-.08-.26Z"/><path fill="#b9b3b6" fill-opacity=".98" d="M710.82 510.22q-2.14 2.6-5.05 3.88l5.05-3.88ZM321.91 529.31q.03.89.9 1.42-.44.26-.96.11-.52-.15-.52-.69-.01-.78.58-.84ZM269.93 540.32v7.18c.01 1.93.22 3.4 2.01 4.48q4 2.4 8.04 6.26 1.84 1.77 5.99 3.13 2.09.4 3.66 2.64-1.02-.04-.91.76-8.53-5.33-16.09-11.97-.38-.34-.88-.48-2.03-.54-2.14-2.86-.38-7.88.14-15.01.01-.06-.05-.07-1.39-.12-.03-.01.01 0 .01.01l.25 5.94Z"/><ellipse fill="#b9b3b6" fill-opacity=".98" transform="rotate(32.5 -745.09185 925.2524)" rx="2.43" ry=".33"/><path fill="#b9b3b6" fill-opacity=".98" d="m569.78 574.18.66-20.22q.05 3.54.14 6.96.06 2.15-.09 4.64-.14 2.41-.2 4.63-.06 1.97-.42 4.44v-.01q.01-.2-.09-.44ZM239.31 554.6l19.88 17.23q-1.99-1.5-4.02-2.83-.72-.48-2.43-1.95-.97-.85-2.51-1.89-3.71-2.54-10.92-10.56ZM452.93 554.78q-1.64 3.02-2.1 5.7-.59 3.42-.61 3.5-.4 1.76-.6 3.4-.2 1.64-.63 3.4-.59 2.43-.6 4.79c-.01.67-.28 1.2-.59 1.78q-.2.36-.25.79-1.12 8.77-1.73 20.14-.36 6.8.74 15.37 1.01 7.89 1.83 15.35.34 3.04-.02 4.66l-3.97-24.25q-.04-.23-.27-.25l-.25-.02a.17.16 1.7 0 0-.18.16q-.09 4.4-.65 9.21-.15 1.31.08 2.51.29 1.49.46 2.92a.49.47-72.6 0 0 .15.3l.22.22q.25.25.33.59l2.22 9.2q-2.67-5.85-4.21-12.04-.49-1.98-.25-3.76c.26-1.83.05-3.66.35-5.53q2.57-15.66 2.62-31.82l.65 1.23q.41.77.54-.09.36-2.29 1.03-4.3.6-1.79.96-4.39.85-5.97 2.52-14.56.52-2.66 2.21-4.21ZM742.74 557.96l-17.27 13.58q-.79.26-2.03.14 8.14-5.27 15.62-12.28 1.47-.13 3.68-1.44ZM408.75 566.5q-1.03 1.84-.41 5.81l-.97-5.99q-.12-.72.51-.34l.87.52ZM435.1 567.4l7.38 8.84q-4.26-3.37-7.38-8.84ZM586.73 571.18q-1.15 2.08-2.31.82l2.31-.82Z"/><rect fill="#b9b3b6" fill-opacity=".98" x="-8.8" y="-.27" transform="rotate(32.3 -653.3012 1484.35884)" width="17.6" height=".54" rx=".26"/><ellipse fill="#b9b3b6" fill-opacity=".98" transform="rotate(-27.8 1332.0137 -385.66773)" rx="4.45" ry=".19"/><path fill="#b9b3b6" fill-opacity=".98" d="m569.33 576.29-.48 8.71.48-8.71ZM443 596.28q-.65.26-.05 2.04l-1.39 6.34-.6 4.02q-.67 2.55-1.1 6.96-.06.65.47 2.53.09.33-.25.3-.13-.01-.27-.1-.11-.06-.18-.21-1.2-2.3-1.45-4.99.29 1.2.92 1.64a.42.41 19.3 0 0 .65-.31c.24-3.14.59-6.46 1.32-9.55.65-2.73.1-5.44.87-8.18.81-2.93-.63-5.76-.61-8.73q0-.06-.06-.07l-.28-.02q-.22-.02-.25.2l-1.08 6.82a.67.67 0 0 1-.57.57q-1.1.17-.48-.96 2.73-7.77 1.66-15.96a.25.25 0 0 1 .21-.29l.25-.05q.06-.01.07.06.51 2.65.76 6.84.23 4.03 1.59 8.56.17.58-.15 2.54ZM556.69 586.46q-1.37-1.48-2.53-3.24-.26-.39-.72-.55-.16-.05-.33-.04-.67.06-.37.67 1.96 3.97 3.38 9 .62 2.19.36 4.54-.28 2.63-.04 5.22.01.06-.05.07h-.04q.01 0 .01-.02.14-.83-.16-1.63.09-5.74-.4-7.98-.57-2.67-3.11-7.84c-.67-1.38-.61-2.63-2.01-3.6q-.6-.42.13-.48 1.12-.09 1.99.6 2.77 2.17 3.89 5.28ZM587.25 598.52q-1.31-3.07-3.24-5.14l.01-11.15a.07.06-48.1 0 1 .13-.01l.62 9.54q.04.56.37 1.03 2 2.84 2.11 5.73ZM574.81 583.47l5.36 24.02-.22 1.3a.04.04 0 0 1-.07 0c-.45-2.24-.55-4.49-1.33-6.65-.91-2.55-1.38-5.26-2.12-7.83q-1.52-5.34-1.62-10.84ZM273.98 583.77l9.77 8.67-9.77-8.67ZM709.12 584.99q-.69 1.16-1.93 1.95-1.05.66-1.98-.68 1.64-.04 3.91-1.27ZM280.77 597.91q.96 2.39 3.7 5.23-8.66-8.51-17.37-16.74-.13-.11-.18-.26-.08-.21.1-.06l13.75 11.83ZM731.25 613.9q1.23-3.01 3.7-4.97.25-.2.2-.47-.09-.49-.49-.19l-4.82 3.61q1.85-2.19 2.79-2.99 10.72-9.22 21.07-18.84.13-.12.25.01h.01q.13.13 0 .26-2.56 2.74-5.16 5.48-8.48 8.95-17.55 18.1ZM558.59 590.23l5.1 10.47q-3.78-4.93-5.1-10.47ZM543.3 591.77q.32.18.42.74 1.41 8.68 9.32 12.88l-5.5-2.49a1.75 1.75 0 0 1-.85-.85l-3.19-6.91a1.33 1.24 36.7 0 1-.12-.66q.09-1-.69-1.54-.25-.18-.32-.49-.04-.16-.03-.32.01-.25.26-.24.35 0 .7-.12ZM576.39 609.31l-1.36-3.55q-.04-.11-.16-.12l-.28-.04a.33.33 0 0 0-.36.37q.5 3.84-.65 7.56-.12-2.86.05-5.69.2-3.28-.08-5.66-.58-4.97-1.21-9.62a.08.08 0 0 1 .15-.04q1.51 4.66 2.37 9.52.17.96 1.05 3.52.65 1.86.48 3.75ZM541.41 595.73q.33 3.96-.29 7.27-.89 4.74-1.14 8.03l-.53-.45q-.43-.36-.86 0-.32.27-.47.72-.99-.28-2.37.7-.97.7-1.83-.76 4.14-1.79 5.93-5.31.82-1.62 1.08-5.03.2-2.56.48-5.17ZM452.56 600q1.54 3.08 3.98 4.68-.09.22-.35.22-.16 0-.34-.12-2.69-1.82-3.29-4.78ZM511.56 602.25l2.57 5.1q.21.42.66.55l7.24 2.17a.75.75 0 0 0 .96-.63q.4-3.33 2.13-6.1l-1.58 6.01q-.48 1.82-2.27 1.27l-6.66-2.07a.71.66-7.6 0 1-.35-.25q-2.06-2.74-2.7-6.05ZM478.37 604.75l1.79 4.85q.18.49.7.47l3.3-.1q-1.12 1.64-3.81.75-.48-.16-.61-.66l-1.37-5.31ZM291.77 610.21q6.12 6.36 12.42 12.55c2.41 2.37 5 5.31 8.04 7.22q.92.59 1.7.19.7.21-.16.75a1.04 1.04 0 0 1-1.12 0q-3.34-2.2-6.21-5.12-9.3-9.51-14.53-14.84-.74-.76-.14-.75ZM483.05 613.49q-1.61.21-2.73.86-.44.25-.46.75-.28 10.76 1.19 21.43-.23.19-.17.58 0 .02-.01.02h-.01q-.01 0-.01-.02-.68-3.63-1.11-7.3-.14-1.13.06-2.11.11-.56-.14-1.06-.29-.6-.3-1.27-.09-5.7.34-10.99.05-.54.54-.74 1.3-.54 2.81-.15ZM495.76 618.31l.1 14.64q-.41 1.03-.21 2.37.01.06-.06.06h-.03q-.03 0-.04-.04-.42-9.11.15-17.87.08-1.22-.08-.01-.04.28.17.85ZM476.09 629.77q.85 9.43.2 19.05-.04.61-.54.25-.26-.2-.48-.62.69-.94.72-1.7.3-6.55.1-16.98ZM460.16 634.25l.48 6.2q.05.66-.43.21-.43-.4-.48-1.24.68-2.25.43-5.17ZM597.95 673.17q.77 1.55 1.59 1.09.98-.45 1.78.39-2.01 2.38-4.42.88-.32-2.78 1.05-2.36ZM588.5 709.71q.75 1.88-.89 3.8.15-2.06.89-3.8ZM580.77 713.95q2.79.66 5.91.09l.26.23q.34.32-.11.39-2.9.48-5.33.05-.67-.11-.73-.76Z"/><path fill="#292829" d="M282.81 722.31c.37 1.36.79 2.8 1.04 4.2q.14.81-.22.07-.92-1.87-1.43-3.99a.24.24 0 0 1 .18-.28l.31-.07q.09-.02.12.07ZM486 729l-.29-2.98q-.03-.4.19-.07 1.04 1.55.47 3.09-.29.78-.37-.04Z"/><path fill="#b9b3b6" fill-opacity=".98" d="M473.59 734.49q1.56 3.03 3.45 2.72.25.75-.83.65-.47-.05-.85-.36-1.4-1.18-1.77-3.01ZM516.05 754.16l-1.38 9.42q-.04.24-.06 0l-.53-6.25q.25-1.11.93-1.75a1.11 1.11 0 0 0 .36-.82q-.01-1.45.68-.6ZM665.15 824.24q-3.05 3.26-6.89 5.16l6.89-5.16ZM461.81 871.27q.68.19.81.67.15.5-.37.45-.69-.06-1.26-.62.32-.3.82-.5ZM562.43 871.96q.27.17.3.68l-.84.22q-.22.05-.35-.13-.13-.18-.02-.31.07-.09.17-.14.36-.19.74-.32ZM427.5 889.76l28.74 8.59q-1.98-.18-5.99-1.24-13.02-3.47-22.75-7.35Z"/></svg>